HIERARCHY
ROOT Hips
{
  OFFSET 37.6286 98.7844 2.09326
  CHANNELS 6 Xposition Yposition Zposition Zrotation Xrotation Yrotation
  JOINT spine
  {
    OFFSET 0 8.30104 0.477351
    CHANNELS 3 Zrotation Xrotation Yrotation
    JOINT spine1
    {
      OFFSET 0 10.4565 0
      CHANNELS 3 Zrotation Xrotation Yrotation
      JOINT spine2
      {
        OFFSET 0 10.0192 0
        CHANNELS 3 Zrotation Xrotation Yrotation
        JOINT Neck
        {
          OFFSET 0 25.7235 1.22641
          CHANNELS 3 Zrotation Xrotation Yrotation
          JOINT Head
          {
            OFFSET 0 7.77175 0
            CHANNELS 3 Zrotation Xrotation Yrotation
            End Site
            {
              OFFSET 0 18.812 -6.20394
            }
          }
        }
        JOINT RightShoulder
        {
          OFFSET -4.2188 10.82 -0.587439
          CHANNELS 3 Zrotation Xrotation Yrotation
          JOINT RightArm
          {
            OFFSET 0 14.1914 0
            CHANNELS 3 Zrotation Xrotation Yrotation
            JOINT RightArmRoll
            {
              OFFSET 0 7.16409 0
              CHANNELS 3 Zrotation Xrotation Yrotation
              JOINT RightForeArm
              {
                OFFSET 0 20.8665 0
                CHANNELS 3 Zrotation Xrotation Yrotation
                JOINT RightForeArmRoll
                {
                  OFFSET 0 8.03921 0
                  CHANNELS 3 Zrotation Xrotation Yrotation
                  JOINT RightHand
                  {
                    OFFSET 0 16.133 0
                    CHANNELS 3 Zrotation Xrotation Yrotation
                    End Site
                    {
                      OFFSET 0 0 0
                    }
                  }
                }
              }
            }
          }
        }
        JOINT LeftShoulder
        {
          OFFSET 4.2188 10.82 -0.587439
          CHANNELS 3 Zrotation Xrotation Yrotation
          JOINT LeftArm
          {
            OFFSET 0 14.1914 0
            CHANNELS 3 Zrotation Xrotation Yrotation
            JOINT LeftArmRoll
            {
              OFFSET 0 7.16408 0
              CHANNELS 3 Zrotation Xrotation Yrotation
              JOINT LeftForeArm
              {
                OFFSET 0 20.8665 0
                CHANNELS 3 Zrotation Xrotation Yrotation
                JOINT LeftForeArmRoll
                {
                  OFFSET 0 8.03921 0
                  CHANNELS 3 Zrotation Xrotation Yrotation
                  JOINT LeftHand
                  {
                    OFFSET 0 16.133 0
                    CHANNELS 3 Zrotation Xrotation Yrotation
                    End Site
                    {
                      OFFSET 0 0 0
                    }
                  }
                }
              }
            }
          }
        }
      }
    }
  }
  JOINT RightUpLeg
  {
    OFFSET -7.35773 -1.34921 -1.13182
    CHANNELS 3 Zrotation Xrotation Yrotation
    JOINT RightUpLegRoll
    {
      OFFSET 0 18.9168 0
      CHANNELS 3 Zrotation Xrotation Yrotation
      JOINT RightLeg
      {
        OFFSET 0 -23.4256 0
        CHANNELS 3 Zrotation Xrotation Yrotation
        JOINT RightLegRoll
        {
          OFFSET 0 23.5023 0
          CHANNELS 3 Zrotation Xrotation Yrotation
          JOINT RightFoot
          {
            OFFSET 0 19.5617 0
            CHANNELS 3 Zrotation Xrotation Yrotation
            JOINT RightToeBase
            {
              OFFSET 0 16.3526 0
              CHANNELS 3 Zrotation Xrotation Yrotation
              End Site
              {
                OFFSET 0.00693125 7.91944 -0.912837
              }
            }
          }
        }
      }
    }
  }
  JOINT LeftUpLeg
  {
    OFFSET 7.35773 -1.34921 -1.13182
    CHANNELS 3 Zrotation Xrotation Yrotation
    JOINT LeftUpLegRoll
    {
      OFFSET 0 18.9169 0
      CHANNELS 3 Zrotation Xrotation Yrotation
      JOINT LeftLeg
      {
        OFFSET 0 23.4255 0
        CHANNELS 3 Zrotation Xrotation Yrotation
        JOINT LeftLegRoll
        {
          OFFSET 0 23.7195 0
          CHANNELS 3 Zrotation Xrotation Yrotation
          JOINT LeftFoot
          {
            OFFSET 0 19.3444 0
            CHANNELS 3 Zrotation Xrotation Yrotation
            JOINT LeftToeBase
            {
              OFFSET 0 16.3526 0
              CHANNELS 3 Zrotation Xrotation Yrotation
              End Site
              {
                OFFSET -0.0310629 7.91943 -0.912837
              }
            }
          }
        }
      }
    }
  }
}
MOTION
Frames: 7
Frame Time: 0.00208333
37.4994 98.8297 1.44542 0.306479 -4.78716 -0.420892 0.0293938 -1.20606 0.0869119 0.0590012 1.57776 0.15894 0.0571645 3.22283 0.159279 -0.233768 23.5123 -0.0140637 -1.45343 -6.78486 -0.329936 71.7534 -1.38021 -2.17553 112.988 35.258 -41.6662 2.20394e-005 -2.31707e-006 -1.89492e-006 122.861 84.303 -126.925 -1.52827e-005 -2.67162e-006 -3.00082 8.02891 -4.95145 0.697698 -63.8246 2.1075 -0.544057 -113.03 35.2505 26.0456 3.62607e-006 1.11986e-006 -5.27881e-006 -34.7442 87.6622 38.4974 1.41463e-005 -5.88365e-007 3.00136 -8.02944 -4.95142 -0.697663 176.21 -0.915662 1.34636 -180 7.0154e-015 178.894 175.778 6.12742 179.733 2.32732e-006 -4.47348e-006 0.0704352 -18.0111 67.1436 18.8525 8.13649 25.2327 -3.48773 -175.002 -1.37971 -0.174249 4.54188e-006 -4.6773e-006 -1.20617 -3.88489 -10.8973 0.365083 -1.12726e-006 -1.61772e-006 -0.154917 18.8054 68.0861 -19.597 -8.13649 25.2327 3.48774 
37.4987 98.8262 1.44351 0.305559 -4.79037 -0.424461 0.0294352 -1.20583 0.0871027 0.0591511 1.57852 0.158742 0.0573224 3.22358 0.159206 -0.22632 23.5046 -0.0174776 -1.4665 -6.77049 -0.332597 71.7557 -1.37604 -2.17378 113.102 35.2262 -42.0742 2.20394e-005 -2.31707e-006 -1.89492e-006 119.448 84.3649 -123.273 -1.52827e-005 -2.67162e-006 -3.00082 8.02891 -4.95145 0.697698 -63.8334 2.12442 -0.552153 -113.105 35.2395 26.4558 3.62607e-006 1.11986e-006 -5.27881e-006 -34.8797 87.6782 38.6467 1.41463e-005 -5.88365e-007 3.00136 -8.02944 -4.95142 -0.697663 176.211 -0.917053 1.34725 -180 7.0154e-015 178.894 175.776 6.12847 179.733 2.32732e-006 -4.47348e-006 0.0705356 -18.0109 67.1431 18.8523 8.13649 25.2327 -3.48773 -175 -1.38123 -0.176424 4.54188e-006 -4.6773e-006 -1.20619 -3.88535 -10.9 0.365457 -1.12726e-006 -1.61772e-006 -0.154903 18.8051 68.086 -19.5968 -8.13649 25.2327 3.48774 
37.4953 98.8254 1.44138 0.304422 -4.79369 -0.42867 0.0294688 -1.20566 0.087295 0.0591818 1.57943 0.158518 0.0573628 3.22449 0.159126 -0.215448 23.4956 -0.0210344 -1.48393 -6.75447 -0.334866 71.7583 -1.37205 -2.17213 113.223 35.2031 -42.4908 2.20394e-005 -2.31707e-006 -1.89492e-006 115.787 84.4075 -119.355 -1.52827e-005 -2.67162e-006 -3.00082 8.02891 -4.95145 0.697698 -63.8419 2.14147 -0.560369 -113.178 35.2358 26.8665 3.62607e-006 1.11986e-006 -5.27881e-006 -35.0131 87.6914 38.7922 1.41463e-005 -5.88365e-007 3.00135 -8.02944 -4.95142 -0.697663 176.212 -0.918314 1.34886 -180 7.0154e-015 178.894 175.774 6.12973 179.734 2.32732e-006 -4.47348e-006 0.0706629 -18.0105 67.1426 18.8522 8.13649 25.2327 -3.48773 -174.998 -1.38228 -0.17874 4.54188e-006 -4.6773e-006 -1.20621 -3.88581 -10.904 0.365873 -1.12726e-006 -1.61772e-006 -0.154886 18.8053 68.0865 -19.5971 -8.13649 25.2327 3.48774 
37.4893 98.8311 1.43886 0.303078 -4.7971 -0.433474 0.0295038 -1.20552 0.0874882 0.0591265 1.58051 0.158274 0.0573184 3.22557 0.15904 -0.201837 23.4855 -0.0246207 -1.50483 -6.73705 -0.336733 71.7614 -1.36806 -2.17053 113.349 35.1879 -42.9125 2.20394e-005 -2.31707e-006 -1.89492e-006 111.94 84.4257 -115.237 -1.52827e-005 -2.67162e-006 -3.00081 8.02891 -4.95145 0.697698 -63.8503 2.15866 -0.568685 -113.248 35.238 27.2748 3.62607e-006 1.11986e-006 -5.27881e-006 -35.1399 87.7021 38.9293 1.41463e-005 -5.88365e-007 3.00135 -8.02944 -4.95142 -0.697663 176.212 -0.919453 1.35094 -180 7.0154e-015 178.894 175.77 6.13118 179.734 2.32732e-006 -4.47348e-006 0.0708097 -18.0102 67.1421 18.852 8.13649 25.2327 -3.48773 -174.996 -1.38288 -0.181213 4.54188e-006 -4.6773e-006 -1.20623 -3.88631 -10.9093 0.366318 -1.12726e-006 -1.61772e-006 -0.154869 18.8059 68.0874 -19.5979 -8.13649 25.2327 3.48774 
37.4907 98.8296 1.43799 0.301537 -4.80061 -0.438825 0.0295491 -1.20538 0.0876817 0.0590182 1.58179 0.158016 0.0572221 3.22685 0.158949 -0.186171 23.4743 -0.028123 -1.52832 -6.7185 -0.33819 71.7651 -1.36388 -2.16889 113.48 35.1798 -43.3358 2.20394e-005 -2.31707e-006 -1.89492e-006 107.982 84.4157 -110.998 -1.52827e-005 -2.67162e-006 -3.00081 8.02891 -4.95145 0.697698 -63.8585 2.17598 -0.577081 -113.317 35.2451 27.6779 3.62607e-006 1.11986e-006 -5.27881e-006 -35.2552 87.7104 39.0534 1.41463e-005 -5.88365e-007 3.00135 -8.02944 -4.95142 -0.697663 176.213 -0.920475 1.3532 -180 7.0154e-015 178.894 175.766 6.13278 179.734 2.32732e-006 -4.47348e-006 0.0709689 -18.0098 67.1415 18.8518 8.13649 25.2327 -3.48773 -174.993 -1.38304 -0.183857 4.54188e-006 -4.6773e-006 -1.20625 -3.88684 -10.9157 0.366777 -1.12726e-006 -1.61772e-006 -0.154851 18.8069 68.0888 -19.599 -8.13649 25.2327 3.48774 
37.4888 98.8242 1.43684 0.299809 -4.80422 -0.444679 0.0296138 -1.20522 0.0878748 0.05889 1.58328 0.157749 0.0571065 3.22834 0.158854 -0.169137 23.4621 -0.0314279 -1.55352 -6.69909 -0.339228 71.7696 -1.35933 -2.16716 113.615 35.178 -43.757 2.20394e-005 -2.31707e-006 -1.89492e-006 103.999 84.3751 -106.728 -1.52827e-005 -2.67162e-006 -3.00081 8.02891 -4.95145 0.697698 -63.8669 2.19344 -0.585534 -113.385 35.2561 28.0728 3.62607e-006 1.11986e-006 -5.27881e-006 -35.3546 87.7165 39.1601 1.41463e-005 -5.88365e-007 3.00134 -8.02944 -4.95142 -0.697663 176.214 -0.92139 1.35538 -180 7.0154e-015 178.894 175.762 6.13455 179.734 2.32732e-006 -4.47348e-006 0.0711332 -18.0093 67.1408 18.8516 8.13649 25.2327 -3.48773 -174.99 -1.38278 -0.186687 4.54188e-006 -4.6773e-006 -1.20627 -3.88743 -10.9232 0.367236 -1.12726e-006 -1.61772e-006 -0.154833 18.8081 68.0905 -19.6005 -8.13649 25.2327 3.48774 
37.4874 98.824 1.43667 0.297903 -4.80792 -0.45099 0.0297071 -1.20501 0.0880668 0.058775 1.58499 0.157481 0.0570045 3.23006 0.158757 -0.15142 23.4489 -0.0344222 -1.57954 -6.67906 -0.339837 71.7751 -1.35423 -2.16527 113.753 35.1819 -44.1727 2.20394e-005 -2.31707e-006 -1.89492e-006 100.078 84.3036 -102.515 -1.52827e-005 -2.67162e-006 -3.00081 8.02891 -4.95145 0.697698 -63.8754 2.21104 -0.594026 -113.452 35.2699 28.4566 3.62607e-006 1.11986e-006 -5.27881e-006 -35.4333 87.7206 39.245 1.41463e-005 -5.88365e-007 3.00134 -8.02944 -4.95142 -0.697663 176.216 -0.922203 1.35721 -180 7.0154e-015 178.894 175.759 6.13647 179.735 2.32732e-006 -4.47348e-006 0.0712952 -18.0089 67.1402 18.8513 8.13649 25.2327 -3.48773 -174.987 -1.38213 -0.189718 4.54188e-006 -4.6773e-006 -1.20629 -3.8881 -10.9316 0.36768 -1.12726e-006 -1.61772e-006 -0.154817 18.8096 68.0925 -19.6023 -8.13649 25.2327 3.48774 
